<?xml version="1.0" encoding="UTF-8"?>
<svg xmlns="http://www.w3.org/2000/svg" xmlns:xlink="http://www.w3.org/1999/xlink" width="78px" height="50px" viewBox="0 0 78 50" version="1.1">
<g id="surface1">
<path style=" stroke:none;fill-rule:evenodd;fill:rgb(23.529412%,25.098039%,26.27451%);fill-opacity:1;" d="M 70.976562 0.015625 L 6.980469 0.015625 C 6.714844 0.015625 6.449219 0.015625 6.183594 0.0195312 C 5.957031 0.0195312 5.734375 0.0234375 5.507812 0.0273438 C 5.019531 0.0429688 4.523438 0.0703125 4.042969 0.15625 C 3.550781 0.246094 3.09375 0.390625 2.648438 0.617188 C 2.210938 0.839844 1.808594 1.132812 1.460938 1.480469 C 1.113281 1.828125 0.824219 2.230469 0.597656 2.667969 C 0.371094 3.113281 0.226562 3.570312 0.140625 4.0625 C 0.0546875 4.546875 0.0234375 5.042969 0.0117188 5.53125 C 0.00390625 5.753906 0.00390625 5.980469 0 6.203125 C 0 6.472656 0 6.738281 0 7.003906 L 0 42.984375 C 0 43.253906 0 43.519531 0 43.785156 C 0.00390625 44.011719 0.00390625 44.234375 0.0117188 44.460938 C 0.0234375 44.949219 0.0546875 45.441406 0.140625 45.925781 C 0.226562 46.417969 0.371094 46.875 0.597656 47.324219 C 0.824219 47.761719 1.113281 48.164062 1.460938 48.511719 C 1.808594 48.859375 2.210938 49.152344 2.648438 49.375 C 3.09375 49.601562 3.550781 49.746094 4.042969 49.832031 C 4.523438 49.921875 5.019531 49.949219 5.507812 49.960938 C 5.734375 49.96875 5.957031 49.972656 6.183594 49.972656 C 6.449219 49.972656 6.714844 49.972656 6.980469 49.972656 L 70.976562 49.972656 C 71.242188 49.972656 71.507812 49.972656 71.777344 49.972656 C 72 49.972656 72.222656 49.96875 72.449219 49.960938 C 72.9375 49.949219 73.433594 49.921875 73.914062 49.832031 C 74.40625 49.746094 74.863281 49.601562 75.308594 49.375 C 75.746094 49.152344 76.148438 48.859375 76.496094 48.511719 C 76.84375 48.164062 77.132812 47.761719 77.359375 47.324219 C 77.585938 46.875 77.730469 46.417969 77.816406 45.925781 C 77.902344 45.441406 77.933594 44.949219 77.945312 44.460938 C 77.953125 44.234375 77.953125 44.011719 77.957031 43.785156 C 77.957031 43.519531 77.957031 43.253906 77.957031 42.984375 L 77.957031 7.003906 C 77.957031 6.738281 77.957031 6.472656 77.957031 6.203125 C 77.953125 5.980469 77.953125 5.753906 77.945312 5.53125 C 77.933594 5.042969 77.902344 4.546875 77.816406 4.0625 C 77.730469 3.570312 77.585938 3.113281 77.359375 2.667969 C 77.132812 2.230469 76.84375 1.828125 76.496094 1.480469 C 76.148438 1.132812 75.746094 0.839844 75.308594 0.617188 C 74.863281 0.390625 74.40625 0.246094 73.914062 0.15625 C 73.433594 0.0703125 72.9375 0.0429688 72.449219 0.0273438 C 72.222656 0.0234375 72 0.0195312 71.777344 0.0195312 C 71.507812 0.015625 71.242188 0.015625 70.976562 0.015625 "/>
<path style=" stroke:none;fill-rule:evenodd;fill:rgb(100%,100%,99.607843%);fill-opacity:1;" d="M 70.976562 1.683594 L 71.765625 1.683594 C 71.976562 1.683594 72.191406 1.6875 72.40625 1.691406 C 72.777344 1.703125 73.214844 1.722656 73.621094 1.796875 C 73.972656 1.859375 74.269531 1.957031 74.554688 2.101562 C 74.835938 2.246094 75.09375 2.433594 75.320312 2.65625 C 75.542969 2.882812 75.730469 3.140625 75.875 3.425781 C 76.019531 3.707031 76.117188 4.003906 76.179688 4.359375 C 76.253906 4.761719 76.273438 5.199219 76.28125 5.578125 C 76.289062 5.789062 76.292969 6 76.292969 6.21875 C 76.292969 6.480469 76.292969 6.742188 76.292969 7.003906 L 76.292969 42.984375 C 76.292969 43.25 76.292969 43.511719 76.292969 43.777344 C 76.292969 43.992188 76.289062 44.203125 76.28125 44.414062 C 76.273438 44.789062 76.253906 45.226562 76.179688 45.636719 C 76.117188 45.988281 76.019531 46.28125 75.875 46.566406 C 75.730469 46.851562 75.542969 47.109375 75.320312 47.332031 C 75.09375 47.558594 74.835938 47.746094 74.550781 47.890625 C 74.269531 48.035156 73.972656 48.132812 73.625 48.195312 C 73.210938 48.269531 72.753906 48.289062 72.410156 48.296875 C 72.195312 48.304688 71.984375 48.304688 71.761719 48.308594 C 71.5 48.308594 71.238281 48.308594 70.976562 48.308594 L 6.980469 48.308594 C 6.976562 48.308594 6.976562 48.308594 6.972656 48.308594 C 6.710938 48.308594 6.453125 48.308594 6.191406 48.308594 C 5.976562 48.304688 5.761719 48.304688 5.554688 48.296875 C 5.203125 48.289062 4.746094 48.269531 4.335938 48.195312 C 3.984375 48.132812 3.6875 48.035156 3.402344 47.886719 C 3.121094 47.746094 2.863281 47.558594 2.636719 47.332031 C 2.414062 47.109375 2.226562 46.851562 2.082031 46.566406 C 1.9375 46.28125 1.839844 45.988281 1.777344 45.628906 C 1.703125 45.222656 1.683594 44.789062 1.675781 44.414062 C 1.667969 44.203125 1.664062 43.988281 1.664062 43.777344 L 1.664062 6.214844 C 1.664062 6.003906 1.667969 5.789062 1.675781 5.574219 C 1.683594 5.203125 1.703125 4.765625 1.777344 4.355469 C 1.839844 4.003906 1.9375 3.707031 2.082031 3.421875 C 2.226562 3.140625 2.414062 2.882812 2.636719 2.65625 C 2.863281 2.433594 3.121094 2.246094 3.402344 2.101562 C 3.6875 1.957031 3.984375 1.859375 4.335938 1.796875 C 4.742188 1.722656 5.179688 1.703125 5.554688 1.691406 C 5.765625 1.6875 5.980469 1.683594 6.191406 1.683594 L 70.976562 1.683594 "/>
<path style=" stroke:none;fill-rule:nonzero;fill:rgb(23.529412%,25.098039%,26.27451%);fill-opacity:1;" d="M 37.53125 26.148438 L 37.53125 33.269531 L 35.3125 33.269531 L 35.3125 15.691406 L 41.203125 15.691406 C 42.625 15.664062 44.003906 16.210938 45.011719 17.21875 C 47.023438 19.125 47.148438 22.335938 45.257812 24.398438 C 45.175781 24.480469 45.09375 24.566406 45.011719 24.648438 C 43.976562 25.644531 42.707031 26.148438 41.203125 26.148438 Z M 37.53125 17.851562 L 37.53125 23.992188 L 41.257812 23.992188 C 42.085938 24.019531 42.886719 23.683594 43.449219 23.078125 C 44.609375 21.859375 44.582031 19.898438 43.382812 18.71875 C 42.816406 18.160156 42.058594 17.851562 41.257812 17.851562 Z M 37.53125 17.851562 "/>
<path style=" stroke:none;fill-rule:nonzero;fill:rgb(23.529412%,25.098039%,26.27451%);fill-opacity:1;" d="M 51.726562 20.851562 C 53.371094 20.851562 54.667969 21.300781 55.617188 22.183594 C 56.570312 23.066406 57.039062 24.296875 57.039062 25.855469 L 57.039062 33.269531 L 54.914062 33.269531 L 54.914062 31.601562 L 54.820312 31.601562 C 53.894531 32.976562 52.679688 33.660156 51.148438 33.660156 C 49.851562 33.660156 48.75 33.269531 47.878906 32.484375 C 47.023438 31.753906 46.542969 30.675781 46.570312 29.539062 C 46.570312 28.292969 47.039062 27.3125 47.960938 26.570312 C 48.886719 25.828125 50.128906 25.460938 51.671875 25.460938 C 52.996094 25.460938 54.074219 25.714844 54.929688 26.191406 L 54.929688 25.671875 C 54.929688 24.902344 54.597656 24.171875 54.019531 23.667969 C 53.425781 23.136719 52.667969 22.839844 51.878906 22.839844 C 50.636719 22.839844 49.660156 23.375 48.941406 24.4375 L 46.984375 23.191406 C 48.03125 21.636719 49.617188 20.851562 51.726562 20.851562 Z M 48.859375 29.582031 C 48.859375 30.171875 49.136719 30.71875 49.589844 31.054688 C 50.085938 31.445312 50.695312 31.65625 51.316406 31.644531 C 52.253906 31.644531 53.148438 31.265625 53.8125 30.59375 C 54.542969 29.890625 54.914062 29.0625 54.914062 28.109375 C 54.226562 27.550781 53.257812 27.269531 52.019531 27.285156 C 51.121094 27.285156 50.363281 27.507812 49.753906 27.941406 C 49.164062 28.378906 48.859375 28.925781 48.859375 29.582031 Z M 48.859375 29.582031 "/>
<path style=" stroke:none;fill-rule:evenodd;fill:rgb(23.529412%,25.098039%,26.27451%);fill-opacity:1;" d="M 69.234375 21.242188 L 61.8125 38.554688 L 59.523438 38.554688 L 62.28125 32.5 L 57.414062 21.242188 L 59.828125 21.242188 L 63.34375 29.878906 L 63.386719 29.878906 L 66.820312 21.242188 Z M 69.234375 21.242188 "/>
<path style=" stroke:none;fill-rule:evenodd;fill:rgb(25.882353%,52.156863%,95.686275%);fill-opacity:1;" d="M 28.550781 24.605469 C 28.550781 23.921875 28.496094 23.234375 28.386719 22.5625 L 19.019531 22.5625 L 19.019531 26.441406 L 24.386719 26.441406 C 24.164062 27.691406 23.449219 28.8125 22.398438 29.511719 L 22.398438 32.035156 L 25.601562 32.035156 C 27.476562 30.285156 28.550781 27.691406 28.550781 24.605469 Z M 28.550781 24.605469 "/>
<path style=" stroke:none;fill-rule:evenodd;fill:rgb(20.392157%,65.882353%,32.54902%);fill-opacity:1;" d="M 19.019531 34.472656 C 21.695312 34.472656 23.957031 33.578125 25.601562 32.035156 L 22.398438 29.511719 C 21.503906 30.128906 20.359375 30.480469 19.019531 30.480469 C 16.425781 30.480469 14.230469 28.699219 13.445312 26.316406 L 10.148438 26.316406 L 10.148438 28.925781 C 11.832031 32.328125 15.265625 34.472656 19.019531 34.472656 Z M 19.019531 34.472656 "/>
<path style=" stroke:none;fill-rule:evenodd;fill:rgb(98.431373%,73.72549%,1.568627%);fill-opacity:1;" d="M 13.445312 26.316406 C 13.03125 25.070312 13.03125 23.710938 13.445312 22.449219 L 13.445312 19.855469 L 10.148438 19.855469 C 8.726562 22.699219 8.726562 26.066406 10.148438 28.910156 Z M 13.445312 26.316406 "/>
<path style=" stroke:none;fill-rule:evenodd;fill:rgb(91.764706%,26.27451%,20.784314%);fill-opacity:1;" d="M 19.019531 18.285156 C 20.441406 18.257812 21.804688 18.804688 22.828125 19.800781 L 25.667969 16.914062 C 23.863281 15.203125 21.488281 14.261719 19.019531 14.292969 C 15.265625 14.292969 11.832031 16.449219 10.148438 19.855469 L 13.445312 22.460938 C 14.230469 20.066406 16.425781 18.285156 19.019531 18.285156 Z M 19.019531 18.285156 "/>
</g>
</svg>
